# xmcd
#
# Track frame offsets: 
#        150
#        15622
#        38173
#        63555
#        79766
#        97904
#        141728
#        160610
#        187444
#        212173
#        234771
#        255511
#
# Disc length: 3596 seconds
#
# Revision: 3
# Processed by: cddbd v1.5.2PL0 Copyright (c) Steve Scherf et al.
# Submitted via: ExactAudioCopy v0.95a5
#
DISCID=a10e0a0c
DTITLE=Tom Russell - Indians Cowboys Horses Dogs
DYEAR=2004
DGENRE=Country
TTITLE0=Tonight We Ride
TTITLE1=Seven Curses
TTITLE2=El Paso
TTITLE3=All This Way for the Short Ride
TTITLE4=Bucking Horse Moon
TTITLE5=Lily, Rosemary, and the Jack of Hearts
TTITLE6=No Telling
TTITLE7=Bacon Rind, Chief Seattle, The Ballad of Ira Hayes
TTITLE8=Old Blue
TTITLE9=East Texas Red
TTITLE10=The Ballad of Edward Abbey
TTITLE11=Little Blue Horse
EXTD=
EXTT0=
EXTT1=
EXTT2=
EXTT3=
EXTT4=
EXTT5=
EXTT6=
EXTT7=
EXTT8=
EXTT9=
EXTT10=
EXTT11=
PLAYORDER=
